<svg xmlns="http://www.w3.org/2000/svg" viewBox="401.19 201.13 158.56 158.56">
<path fill="#0068FF" d="M559.75,245.19l-0.19,0.17l-42-44.23l0,0H401.19v116.01l44.23,42.55h114.33V245.19z"/>
<path fill="#339EF2" d="M475.06,299.66c-0.88,0-1.75-0.04-2.62-0.11v32c-18.53-1.05-35.78-20.34-35.78-40.1v-49.1h38.4c18.31,0,33.16,14.85,33.16,33.16C508.22,293.83,493.37,299.66,475.06,299.66z"/>
<path fill="#C0E0FF" d="M483.09,302.7c-0.88,0-1.75-0.04-2.62-0.11v21.86c-19.76,0-35.78-16.02-35.78-35.78v-52.29h38.4c18.31,0,33.16,14.85,33.16,33.16C516.25,287.85,501.41,302.7,483.09,302.7z"/>
<path fill="#0068FF" d="M483.17,256.96h-2.7v25h2.69c0,0,0,0,0,0c6.9,0,12.5-5.6,12.5-12.5C495.67,262.55,490.07,256.96,483.17,256.96z"/>
<path fill="#339EF2" d="M483.17,256.96h-2.7v7.2c4.23,2,7.16,6.3,7.16,11.29c0,2.25-0.6,4.36-1.65,6.18c5.54-1.28,9.68-6.24,9.68-12.17C495.67,262.55,490.07,256.96,483.17,256.96z"/>
</svg>
