<svg xmlns="http://www.w3.org/2000/svg" viewBox="0 0 640 300" width="640" height="300">
  <defs>
    <clipPath id="clip"><rect x="0" y="0" width="640" height="300" rx="14" ry="14"/></clipPath>
  </defs>
  <g clip-path="url(#clip)">
    <rect x="0" y="0" width="640" height="300" fill="#ffffff"/>
    <rect x="0" y="0" width="640" height="40" fill="#fafafb"/>
    <line x1="0" y1="40" x2="640" y2="40" stroke="rgba(20,19,31,0.08)" stroke-width="1"/>
    <circle cx="20" cy="20.0" r="4.5" fill="#ff5f57"/>
    <circle cx="36" cy="20.0" r="4.5" fill="#febc2e"/>
    <circle cx="52" cy="20.0" r="4.5" fill="#28c840"/>
    <rect x="200" y="9.0" width="240" height="22" rx="6" fill="#f5f6fa"/>
    <text x="320" y="24.0" text-anchor="middle" font-family="JetBrains Mono, Menlo, monospace" font-size="11" fill="#9494a0">app.plenix.ai/flujo</text>

<rect x="26" y="90" width="168" height="118" rx="12" fill="#f5f6fa" stroke="rgba(20,19,31,0.08)" stroke-width="1"/>
<rect x="46" y="110" width="26" height="26" rx="8" fill="#eef0f7"/><text x="59" y="127" font-family="Inter, -apple-system, Segoe UI, sans-serif" font-size="10" font-weight="600" fill="#57576a" text-anchor="middle">TÚ</text>
<text x="46" y="164" font-family="Inter, -apple-system, Segoe UI, sans-serif" font-size="12.5" font-weight="600" fill="#14131f" text-anchor="start">Pregunta</text>
<text x="46" y="184" font-family="Inter, -apple-system, Segoe UI, sans-serif" font-size="11" fill="#57576a" text-anchor="start">¿Cuál es el estado</text>
<text x="46" y="198" font-family="Inter, -apple-system, Segoe UI, sans-serif" font-size="11" fill="#57576a" text-anchor="start">del proyecto X?</text>

<path d="M204 149 L228 149" stroke="#9494a0" stroke-width="1.5" fill="none"/><path d="M222 143 L228 149 L222 155" stroke="#9494a0" stroke-width="1.5" fill="none" stroke-linecap="round" stroke-linejoin="round"/>

<rect x="236" y="90" width="168" height="118" rx="12" fill="#f5f6fa" stroke="rgba(20,19,31,0.08)" stroke-width="1"/>
<rect x="256" y="110" width="26" height="26" rx="8" fill="rgba(0,89,255,0.08)"/><text x="269" y="127" font-family="Inter, -apple-system, Segoe UI, sans-serif" font-size="10" font-weight="600" fill="#0059ff" text-anchor="middle">IA</text>
<text x="256" y="164" font-family="Inter, -apple-system, Segoe UI, sans-serif" font-size="12.5" font-weight="600" fill="#14131f" text-anchor="start">Respuesta con fuente</text>
<text x="256" y="184" font-family="Inter, -apple-system, Segoe UI, sans-serif" font-size="11" fill="#57576a" text-anchor="start">Atrasado 3 días —</text>
<text x="256" y="198" font-family="Inter, -apple-system, Segoe UI, sans-serif" font-size="11" fill="#57576a" text-anchor="start">Jira, hoy 09:14</text>

<path d="M414 149 L438 149" stroke="#9494a0" stroke-width="1.5" fill="none"/><path d="M432 143 L438 149 L432 155" stroke="#9494a0" stroke-width="1.5" fill="none" stroke-linecap="round" stroke-linejoin="round"/>

<rect x="446" y="90" width="168" height="118" rx="12" fill="rgba(18,163,148,0.06)" stroke="#12a394" stroke-width="1.5"/>
<circle cx="479" cy="123" r="13" fill="#12a394"/><path d="M473 123 l4 4 l9 -9" stroke="#ffffff" stroke-width="2.2" fill="none" stroke-linecap="round" stroke-linejoin="round"/>
<text x="466" y="164" font-family="Inter, -apple-system, Segoe UI, sans-serif" font-size="12.5" font-weight="600" fill="#14131f" text-anchor="start">Acción tomada</text>
<text x="466" y="184" font-family="Inter, -apple-system, Segoe UI, sans-serif" font-size="11" fill="#57576a" text-anchor="start">Tarea creada</text>
<text x="466" y="198" font-family="Inter, -apple-system, Segoe UI, sans-serif" font-size="11" fill="#57576a" text-anchor="start">en Jira</text>
  </g>
</svg>
