<svg xmlns="http://www.w3.org/2000/svg" viewBox="0 0 640 300" width="640" height="300">
  <defs>
    <clipPath id="clip"><rect x="0" y="0" width="640" height="300" rx="14" ry="14"/></clipPath>
  </defs>
  <g clip-path="url(#clip)">
    <rect x="0" y="0" width="640" height="300" fill="#ffffff"/>
    <rect x="0" y="0" width="640" height="40" fill="#fafafb"/>
    <line x1="0" y1="40" x2="640" y2="40" stroke="rgba(20,19,31,0.08)" stroke-width="1"/>
    <circle cx="20" cy="20.0" r="4.5" fill="#ff5f57"/>
    <circle cx="36" cy="20.0" r="4.5" fill="#febc2e"/>
    <circle cx="52" cy="20.0" r="4.5" fill="#28c840"/>
    <rect x="200" y="9.0" width="240" height="22" rx="6" fill="#f5f6fa"/>
    <text x="320" y="24.0" text-anchor="middle" font-family="JetBrains Mono, Menlo, monospace" font-size="11" fill="#9494a0">app.plenix.ai/seguridad</text>

<rect x="26" y="60" width="26" height="26" rx="8" fill="rgba(0,89,255,0.08)"/><text x="39" y="77" font-family="Inter, -apple-system, Segoe UI, sans-serif" font-size="10" font-weight="600" fill="#0059ff" text-anchor="middle">IA</text>
<text x="64" y="70" font-family="Inter, -apple-system, Segoe UI, sans-serif" font-size="13" font-weight="400" fill="#14131f" text-anchor="start">El presupuesto de RR.HH. para el Q3 es de $22.500.000 CLP.</text>
<rect x="470" y="58" width="116" height="26" rx="7" fill="rgba(18,163,148,0.1)"/>
<path d="M486 71 a7 7 0 1 1 0.01 0" fill="none" stroke="#12a394" stroke-width="1.6"/>
<rect x="482" y="70" width="8" height="6" rx="1.5" fill="none" stroke="#12a394" stroke-width="1.6"/>
<text x="500" y="75" font-family="Inter, -apple-system, Segoe UI, sans-serif" font-size="10.5" font-weight="600" fill="#12a394" text-anchor="start">Verificado</text>

<line x1="26" y1="104" x2="586" y2="104" stroke="rgba(20,19,31,0.08)" stroke-width="1"/>

<circle cx="38" cy="132" r="9" fill="rgba(18,163,148,0.1)"/><path d="M34 132 l3 3 l7 -7" stroke="#12a394" stroke-width="2" fill="none" stroke-linecap="round" stroke-linejoin="round"/>
<text x="56" y="136" font-family="Inter, -apple-system, Segoe UI, sans-serif" font-size="12.5" fill="#14131f" text-anchor="start">Permisos heredados del sistema original</text>

<circle cx="38" cy="170" r="9" fill="rgba(18,163,148,0.1)"/><path d="M34 170 l3 3 l7 -7" stroke="#12a394" stroke-width="2" fill="none" stroke-linecap="round" stroke-linejoin="round"/>
<text x="56" y="174" font-family="Inter, -apple-system, Segoe UI, sans-serif" font-size="12.5" fill="#14131f" text-anchor="start">Trazabilidad de cada consulta y respuesta</text>

<circle cx="38" cy="208" r="9" fill="rgba(18,163,148,0.1)"/><path d="M34 208 l3 3 l7 -7" stroke="#12a394" stroke-width="2" fill="none" stroke-linecap="round" stroke-linejoin="round"/>
<text x="56" y="212" font-family="Inter, -apple-system, Segoe UI, sans-serif" font-size="12.5" fill="#14131f" text-anchor="start">Datos cifrados en tránsito y en reposo</text>
  </g>
</svg>
