<svg xmlns="http://www.w3.org/2000/svg" viewBox="0 0 640 300" width="640" height="300">
  <defs>
    <clipPath id="clip"><rect x="0" y="0" width="640" height="300" rx="14" ry="14"/></clipPath>
    <marker id="arrow" viewBox="0 0 10 10" refX="8" refY="5" markerWidth="7" markerHeight="7" orient="auto-start-reverse">
      <path d="M0,0 L10,5 L0,10 z" fill="#0059ff"/>
    </marker>
  </defs>
  <g clip-path="url(#clip)">
    <rect x="0" y="0" width="640" height="300" fill="#ffffff"/>
    <rect x="0" y="0" width="640" height="40" fill="#fafafb"/>
    <line x1="0" y1="40" x2="640" y2="40" stroke="rgba(20,19,31,0.08)" stroke-width="1"/>
    <circle cx="20" cy="20.0" r="4.5" fill="#ff5f57"/>
    <circle cx="36" cy="20.0" r="4.5" fill="#febc2e"/>
    <circle cx="52" cy="20.0" r="4.5" fill="#28c840"/>
    <rect x="200" y="9.0" width="240" height="22" rx="6" fill="#f5f6fa"/>
    <text x="320" y="24.0" text-anchor="middle" font-family="JetBrains Mono, Menlo, monospace" font-size="11" fill="#9494a0">app.plenix.ai/metricas</text>

<text x="320" y="64" text-anchor="middle" font-family="Inter, -apple-system, Segoe UI, sans-serif" font-size="11" font-weight="600" letter-spacing="0.5" fill="#9494a0">PRODUCTIVIDAD DEL EQUIPO</text>

<line x1="46" y1="252" x2="594" y2="252" stroke="rgba(20,19,31,0.08)" stroke-width="1"/>

<rect x="60" y="212" width="60" height="40" rx="8" fill="#eef0f7"/>
<rect x="150" y="177" width="60" height="75" rx="8" fill="#eef0f7"/>
<rect x="240" y="137" width="60" height="115" rx="8" fill="#eef0f7"/>
<rect x="330" y="102" width="60" height="150" rx="8" fill="rgba(0,89,255,0.35)"/>
<rect x="420" y="67" width="60" height="185" rx="8" fill="rgba(0,89,255,0.65)"/>
<rect x="510" y="42" width="60" height="210" rx="8" fill="#0059ff"/>

<path d="M90 202 C 220 150, 400 90, 540 32" stroke="#0059ff" stroke-width="2" fill="none" stroke-dasharray="1 7" stroke-linecap="round" marker-end="url(#arrow)"/>

<text x="90" y="274" text-anchor="middle" font-family="Inter, -apple-system, Segoe UI, sans-serif" font-size="12.5" fill="#57576a">Sin Plenix</text>
<text x="540" y="274" text-anchor="middle" font-family="Inter, -apple-system, Segoe UI, sans-serif" font-size="12.5" font-weight="600" fill="#0059ff">Con Plenix</text>
  </g>
</svg>
