<svg xmlns="http://www.w3.org/2000/svg" viewBox="0 0 640 300" width="640" height="300">
  <defs>
    <clipPath id="clip"><rect x="0" y="0" width="640" height="300" rx="14" ry="14"/></clipPath>
  </defs>
  <g clip-path="url(#clip)">
    <rect x="0" y="0" width="640" height="300" fill="#ffffff"/>
    <rect x="0" y="0" width="640" height="40" fill="#fafafb"/>
    <line x1="0" y1="40" x2="640" y2="40" stroke="rgba(20,19,31,0.08)" stroke-width="1"/>
    <circle cx="20" cy="20.0" r="4.5" fill="#ff5f57"/>
    <circle cx="36" cy="20.0" r="4.5" fill="#febc2e"/>
    <circle cx="52" cy="20.0" r="4.5" fill="#28c840"/>
    <rect x="220" y="9.0" width="200" height="22" rx="6" fill="#f5f6fa"/>
    <text x="320" y="24.0" text-anchor="middle" font-family="JetBrains Mono, Menlo, monospace" font-size="11" fill="#9494a0">app.plenix.ai/buscar</text>
<rect x="26" y="60" width="560" height="40" rx="10" fill="#f5f6fa" stroke="rgba(20,19,31,0.08)" stroke-width="1"/>
<circle cx="48" cy="80" r="6" fill="none" stroke="#9494a0" stroke-width="2"/>
<line x1="52.5" y1="84.5" x2="57" y2="89" stroke="#9494a0" stroke-width="2" stroke-linecap="round"/>
<text x="66" y="85" font-family="Inter, -apple-system, Segoe UI, sans-serif" font-size="12.5" font-weight="400" fill="#9494a0" text-anchor="start">presentación onboarding nuevos clientes</text>
<line x1="26" y1="166" x2="586" y2="166" stroke="rgba(20,19,31,0.08)" stroke-width="1"/>
<text x="26" y="150" font-family="Inter, -apple-system, Segoe UI, sans-serif" font-size="13" font-weight="400" fill="#14131f" text-anchor="start">Onboarding_Clientes_2026.pptx</text>
<rect x="506" y="134" width="80" height="22" rx="6" fill="rgba(0,89,255,0.08)"/><text x="546.0" y="149" font-family="Inter, -apple-system, Segoe UI, sans-serif" font-size="10" font-weight="600" fill="#0059ff" text-anchor="middle" letter-spacing="0.3">Drive</text>
<line x1="26" y1="214" x2="586" y2="214" stroke="rgba(20,19,31,0.08)" stroke-width="1"/>
<text x="26" y="198" font-family="Inter, -apple-system, Segoe UI, sans-serif" font-size="13" font-weight="400" fill="#14131f" text-anchor="start">#customer-success — hilo fijado</text>
<rect x="506" y="182" width="80" height="22" rx="6" fill="rgba(18,163,148,0.1)"/><text x="546.0" y="197" font-family="Inter, -apple-system, Segoe UI, sans-serif" font-size="10" font-weight="600" fill="#12a394" text-anchor="middle" letter-spacing="0.3">Slack</text>
<line x1="26" y1="262" x2="586" y2="262" stroke="rgba(20,19,31,0.08)" stroke-width="1"/>
<text x="26" y="246" font-family="Inter, -apple-system, Segoe UI, sans-serif" font-size="13" font-weight="400" fill="#14131f" text-anchor="start">Guía de bienvenida — Equipo CX</text>
<rect x="506" y="230" width="80" height="22" rx="6" fill="#eef0f7"/><text x="546.0" y="245" font-family="Inter, -apple-system, Segoe UI, sans-serif" font-size="10" font-weight="600" fill="#57576a" text-anchor="middle" letter-spacing="0.3">Notion</text>
  </g>
</svg>
