<svg xmlns="http://www.w3.org/2000/svg" viewBox="0 0 640 300" width="640" height="300">
  <defs>
    <clipPath id="clip"><rect x="0" y="0" width="640" height="300" rx="14" ry="14"/></clipPath>
  </defs>
  <g clip-path="url(#clip)">
    <rect x="0" y="0" width="640" height="300" fill="#ffffff"/>
    <rect x="0" y="0" width="640" height="40" fill="#fafafb"/>
    <line x1="0" y1="40" x2="640" y2="40" stroke="rgba(20,19,31,0.08)" stroke-width="1"/>
    <circle cx="20" cy="20.0" r="4.5" fill="#ff5f57"/>
    <circle cx="36" cy="20.0" r="4.5" fill="#febc2e"/>
    <circle cx="52" cy="20.0" r="4.5" fill="#28c840"/>
    <rect x="220" y="9.0" width="200" height="22" rx="6" fill="#f5f6fa"/>
    <text x="320" y="24.0" text-anchor="middle" font-family="JetBrains Mono, Menlo, monospace" font-size="11" fill="#9494a0">app.plenix.ai/resumen</text>
<rect x="26" y="60" width="560" height="52" rx="10" fill="#f5f6fa" stroke="rgba(20,19,31,0.08)" stroke-width="1"/>
<circle cx="50" cy="86" r="8" fill="none" stroke="rgba(20,19,31,0.14)" stroke-width="2.5"/>
<path d="M 50 78 A 8 8 0 0 1 58 86" fill="none" stroke="#0059ff" stroke-width="2.5" stroke-linecap="round"/>
<text x="70" y="80" font-family="Inter, -apple-system, Segoe UI, sans-serif" font-size="12" font-weight="600" fill="#14131f" text-anchor="start">Generando resumen…</text>
<text x="70" y="98" font-family="Inter, -apple-system, Segoe UI, sans-serif" font-size="11.5" font-weight="400" fill="#57576a" text-anchor="start">Minuta_Directorio_Julio.pdf · 42 páginas</text>
<circle cx="30" cy="144" r="2.5" fill="#9494a0"/>
<text x="44" y="148" font-family="Inter, -apple-system, Segoe UI, sans-serif" font-size="13" font-weight="400" fill="#14131f" text-anchor="start">El directorio aprobó el presupuesto de expansión</text>
<text x="44" y="168" font-family="Inter, -apple-system, Segoe UI, sans-serif" font-size="13" font-weight="400" fill="#14131f" text-anchor="start">para el segundo semestre.</text>
<circle cx="30" cy="196" r="2.5" fill="#9494a0"/>
<text x="44" y="200" font-family="Inter, -apple-system, Segoe UI, sans-serif" font-size="13" font-weight="400" fill="#14131f" text-anchor="start">Se identificó un riesgo de retraso en la entrega</text>
<text x="44" y="220" font-family="Inter, -apple-system, Segoe UI, sans-serif" font-size="13" font-weight="400" fill="#14131f" text-anchor="start">del proveedor logístico.</text>
<circle cx="30" cy="248" r="2.5" fill="#9494a0"/>
<text x="44" y="252" font-family="Inter, -apple-system, Segoe UI, sans-serif" font-size="13" font-weight="400" fill="#14131f" text-anchor="start">Próximo paso: definir plan de contingencia antes</text>
<text x="44" y="272" font-family="Inter, -apple-system, Segoe UI, sans-serif" font-size="13" font-weight="400" fill="#14131f" text-anchor="start">del 30 de julio.</text>
  </g>
</svg>
