<svg xmlns="http://www.w3.org/2000/svg" viewBox="0 0 640 300" width="640" height="300">
  <defs>
    <clipPath id="clip"><rect x="0" y="0" width="640" height="300" rx="14" ry="14"/></clipPath>
  </defs>
  <g clip-path="url(#clip)">
    <rect x="0" y="0" width="640" height="300" fill="#ffffff"/>
    <rect x="0" y="0" width="640" height="40" fill="#fafafb"/>
    <line x1="0" y1="40" x2="640" y2="40" stroke="rgba(20,19,31,0.08)" stroke-width="1"/>
    <circle cx="20" cy="20.0" r="4.5" fill="#ff5f57"/>
    <circle cx="36" cy="20.0" r="4.5" fill="#febc2e"/>
    <circle cx="52" cy="20.0" r="4.5" fill="#28c840"/>
    <rect x="200" y="9.0" width="240" height="22" rx="6" fill="#f5f6fa"/>
    <text x="320" y="24.0" text-anchor="middle" font-family="JetBrains Mono, Menlo, monospace" font-size="11" fill="#9494a0">app.plenix.ai/preguntas</text>
<rect x="26" y="60" width="26" height="26" rx="8" fill="#eef0f7"/><text x="39" y="77" font-family="Inter, -apple-system, Segoe UI, sans-serif" font-size="10" font-weight="600" fill="#57576a" text-anchor="middle">TÚ</text>
<text x="64" y="70" font-family="Inter, -apple-system, Segoe UI, sans-serif" font-size="13" font-weight="400" fill="#14131f" text-anchor="start">¿Cuál es la política de vacaciones actualizada?</text>
<rect x="26" y="106" width="26" height="26" rx="8" fill="rgba(0,89,255,0.08)"/><text x="39" y="123" font-family="Inter, -apple-system, Segoe UI, sans-serif" font-size="10" font-weight="600" fill="#0059ff" text-anchor="middle">IA</text>
<text x="64" y="116" font-family="Inter, -apple-system, Segoe UI, sans-serif" font-size="13" font-weight="400" fill="#14131f" text-anchor="start">La misma respuesta llega a RR.HH., Operaciones y Legal,</text>
<text x="64" y="138" font-family="Inter, -apple-system, Segoe UI, sans-serif" font-size="13" font-weight="400" fill="#14131f" text-anchor="start">citando siempre las mismas fuentes verificadas.</text>
<text x="64" y="176" font-family="Inter, -apple-system, Segoe UI, sans-serif" font-size="10.5" font-weight="600" letter-spacing="0.5" fill="#9494a0" text-anchor="start">FUENTES VERIFICADAS</text>
<rect x="64" y="186" width="90" height="26" rx="7" fill="rgba(0,89,255,0.08)"/><text x="109" y="203" font-family="Inter, -apple-system, Segoe UI, sans-serif" font-size="11" font-weight="600" fill="#0059ff" text-anchor="middle">Google Drive</text>
<rect x="164" y="186" width="72" height="26" rx="7" fill="rgba(18,163,148,0.1)"/><text x="200" y="203" font-family="Inter, -apple-system, Segoe UI, sans-serif" font-size="11" font-weight="600" fill="#12a394" text-anchor="middle">Slack</text>
<rect x="246" y="186" width="78" height="26" rx="7" fill="#eef0f7"/><text x="285" y="203" font-family="Inter, -apple-system, Segoe UI, sans-serif" font-size="11" font-weight="600" fill="#57576a" text-anchor="middle">Notion</text>
<line x1="26" y1="240" x2="586" y2="240" stroke="rgba(20,19,31,0.08)" stroke-width="1"/>
<text x="26" y="262" font-family="Inter, -apple-system, Segoe UI, sans-serif" font-size="11.5" font-weight="400" fill="#9494a0" text-anchor="start">Sin importar el equipo ni el canal, la respuesta es siempre la misma.</text>
  </g>
</svg>
